# xmcd
#
# Track frame offsets: 
#        150
#        22552
#        53369
#        73333
#        94579
#        117817
#        140849
#        165818
#        184111
#        203093
#
# Disc length: 3193 seconds
#
# Revision: 0
# Processed by: cddbd v1.5.2PL0 Copyright (c) Steve Scherf et al.
# Submitted via: ExactAudioCopy v1.0b3
#
DISCID=770c770a
DTITLE=Tuan Vu, Huong Lan - Cai Tram Em Cai
DYEAR=1900
DGENRE=
TTITLE0=Tuan Vu - Vung la me bay
TTITLE1=Huong Lan - Sao roi tren bien
TTITLE2=Tuan Vu - Cai tram em cai
TTITLE3=Huong Lan - Noi niem
TTITLE4=Tuan Vu - Ben giang dau
TTITLE5=Huong Lan - Khong bao gio ngan cach
TTITLE6=Tuan Vu - Tren dinh mua dong
TTITLE7=Huong Lan - Dung hoi vi sao toi buon
TTITLE8=Tuan Vu - Loi nguoi ra di
TTITLE9=Tuan Vu - Lan va Diep 1
EXTD=
EXTT0=
EXTT1=
EXTT2=
EXTT3=
EXTT4=
EXTT5=
EXTT6=
EXTT7=
EXTT8=
EXTT9=
PLAYORDER=
